Coordinates
version=1
nRows=20
nColumns=30
inDegrees=yes

Units are S.I. units (second, meters, Newtons, ...)
Angles are in degrees.

endheader
time	floatyaw	floatroll	floatpitch	floatx	floaty	floatz	pro_sup_l	deviation_l	flexion_l	cmc_flexion_l	cmc_abduction_l	mp_flexion_l	ip_flexion_l	2mcp_flexion_l	2mcp_abduction_l	2pm_flexion_l	2md_flexion_l	3mcp_flexion_l	3mcp_abduction_l	3pm_flexion_l	3md_flexion_l	4mcp_flexion_l	4mcp_abduction_l	4pm_flexion_l	4md_flexion_l	5mcp_flexion_l	5mcp_abduction_l	5pm_flexion_l	5md_flexion_l
0.005000	-0.679314	-3.115271	87.889519	0.165441	-0.236704	0.177827	119.682650	23.409423	15.480557	1.477449	35.666616	-17.529127	-28.388637	44.807533	9.618862	44.409875	39.476669	37.682171	5.515008	53.140883	47.117088	40.615698	-4.728733	73.190995	49.890303	26.473585	-10.829414	65.917383	45.643102
0.015000	-0.679314	-3.115271	87.889519	0.164746	-0.235811	0.177171	119.235111	23.082813	15.074687	2.582196	36.147382	-17.932066	-31.049389	44.832906	9.560058	44.481366	40.726434	37.396758	5.457110	53.721466	48.311022	40.030929	-4.811061	73.973336	50.881027	26.028395	-10.855834	66.210107	46.337596
0.025000	-0.679314	-3.115271	87.889519	0.163995	-0.234974	0.176508	118.825794	22.754626	14.651874	3.660287	36.677702	-18.264482	-33.796031	44.756535	9.518969	44.641963	42.003850	37.049585	5.416602	54.346563	49.487100	39.440159	-4.891468	74.797466	51.871589	25.597748	-10.883273	66.500249	47.063823
0.035000	-0.679314	-3.115271	87.889519	0.163223	-0.234239	0.175842	118.455950	22.424959	14.254476	4.638839	37.195865	-18.495380	-36.468470	44.574452	9.500471	44.899386	43.244491	36.651328	5.396753	54.994339	50.595288	38.866352	-4.966597	75.630962	52.823458	25.211738	-10.912938	66.756715	47.779431
0.045000	-0.679314	-3.115271	87.889519	0.162461	-0.233636	0.175186	118.123181	22.093020	13.921923	5.460400	37.649748	-18.607250	-38.905199	44.296455	9.506582	45.231483	44.388720	36.220323	5.399940	55.625952	51.599680	38.323432	-5.035640	76.431832	53.705158	24.884595	-10.948654	66.956174	48.430027
0.055000	-0.679314	-3.115271	87.889519	0.161733	-0.233178	0.174557	117.823769	21.760353	13.680503	6.088488	38.005682	-18.602226	-40.962589	43.948959	9.535113	45.590986	45.384561	35.782498	5.425903	56.193000	52.476202	37.820612	-5.099137	77.152658	54.492125	24.616864	-10.993362	67.085171	48.962457
0.065000	-0.679314	-3.115271	87.889519	0.161054	-0.232865	0.173977	117.554522	21.432892	13.535958	6.511901	38.251533	-18.502021	-42.543658	43.571766	9.579470	45.921882	46.194646	35.367642	5.470392	56.652646	53.211467	37.367653	-5.157468	77.749002	55.167374	24.400917	-11.046117	67.141841	49.345636
0.075000	-0.679314	-3.115271	87.889519	0.160436	-0.232684	0.173469	117.314710	21.120894	13.471878	6.747353	38.396039	-18.341530	-43.627442	43.209953	9.630205	46.178970	46.805715	35.004016	5.525336	56.982516	53.804699	36.976996	-5.210090	78.191411	55.725055	24.227000	-11.101220	67.137139	49.586758
0.085000	-0.679314	-3.115271	87.889519	0.159892	-0.232608	0.173053	117.107654	20.836873	13.455664	6.836928	38.465176	-18.158620	-44.278120	42.904431	9.677797	46.341202	47.232329	34.713483	5.580889	57.187711	54.268617	36.661297	-5.255886	78.475963	56.173083	24.087840	-11.150076	67.093090	49.729314
0.095000	-0.679314	-3.115271	87.889519	0.159434	-0.232606	0.172743	116.940191	20.592470	13.450672	6.837885	38.494951	-17.984530	-44.621374	42.684034	9.715259	46.414170	47.509712	34.507721	5.628480	57.297576	54.625302	36.427978	-5.294078	78.626849	56.529930	23.980261	-11.184983	67.036687	49.830902
0.105000	-0.679314	-3.115271	87.889519	0.159072	-0.232647	0.172542	116.818972	20.395518	13.429638	6.807114	38.520731	-17.838614	-44.797650	42.559931	9.739348	46.423670	47.679512	34.385334	5.663258	57.355123	54.898181	36.274141	-5.324772	78.688176	56.815635	23.903140	-11.202727	66.991802	49.933890
0.115000	-0.679314	-3.115271	87.889519	0.158813	-0.232703	0.172440	116.745333	20.248427	13.383175	6.786367	38.565761	-17.728117	-44.916870	42.522807	9.750155	46.405421	47.777115	34.330826	5.684764	57.403896	55.105159	36.184777	-5.348717	78.708496	57.042839	23.853152	-11.205600	66.973228	50.047346
0.125000	-0.679314	-3.115271	87.889519	0.158653	-0.232757	0.172414	116.712380	20.148190	13.319625	6.794262	38.633749	-17.651028	-45.035283	42.544617	9.749776	46.394931	47.826134	34.317491	5.695809	57.476133	55.256926	36.135398	-5.366658	78.725420	57.214114	23.821554	-11.199083	66.984443	50.149908
0.135000	-0.679314	-3.115271	87.889519	0.158578	-0.232798	0.172434	116.706585	20.087404	13.257386	6.827407	38.709933	-17.599767	-45.159008	42.586728	9.741046	46.419098	47.839480	34.314964	5.700502	57.585027	55.360105	36.098401	-5.379002	78.756704	57.326697	23.794981	-11.187947	67.017585	50.208434
0.145000	-0.679314	-3.115271	87.889519	0.158564	-0.232822	0.172474	116.712821	20.055538	13.214340	6.868824	38.771172	-17.564629	-45.265210	42.613228	9.726933	46.490100	47.823521	34.299098	5.702488	57.723214	55.421754	36.051100	-5.386139	78.800239	57.380412	23.760532	-11.173698	67.054518	50.198733
0.155000	-0.679314	-3.115271	87.889519	0.158584	-0.232830	0.172518	116.719496	20.040341	13.199358	6.899255	38.800176	-17.536492	-45.327706	42.604342	9.710546	46.601937	47.783569	34.259876	5.704043	57.867648	55.452506	35.982452	-5.389058	78.841014	57.383726	23.712244	-11.154992	67.069951	50.117421
0.165000	-0.679314	-3.115271	87.889519	0.158616	-0.232825	0.172562	116.720957	20.029715	13.208884	6.906422	38.795946	-17.508267	-45.336262	42.563516	9.695275	46.730252	47.730183	34.203840	5.706102	57.988214	55.467856	35.895439	-5.389623	78.860654	57.355446	23.654648	-11.130084	67.037564	49.982621
0.175000	-0.679314	-3.115271	87.889519	0.158640	-0.232816	0.172608	116.716510	20.013911	13.229345	6.888971	38.774446	-17.475272	-45.303012	42.514116	9.684513	46.837482	47.682998	34.149801	5.708878	58.057027	55.486976	35.803430	-5.390156	78.845565	57.321706	23.600424	-11.099077	66.938256	49.827026
0.185000	-0.679314	-3.115271	87.889519	0.158645	-0.232807	0.172654	116.707426	19.987289	13.244132	6.854718	38.759442	-17.435668	-45.254548	42.486433	9.680872	46.885698	47.666331	34.118890	5.712542	58.057529	55.527209	35.721792	-5.392541	78.792054	57.308814	23.562611	-11.064473	66.768235	49.687424
0.195000	-0.679314	-3.115271	87.889519	0.158627	-0.232805	0.172694	116.694163	19.948959	13.241887	6.815443	38.769364	-17.391437	-45.215166	42.501027	9.685237	46.854730	47.695639	34.122847	5.717557	57.992606	55.594895	35.659122	-5.397442	78.708294	57.334057	23.545786	-11.030093	66.543931	49.593579
